<?xml version="1.0" encoding="UTF-8"?>
<svg version="1.1" xmlns="http://www.w3.org/2000/svg" width="150" height="150">
<path d="M0 0 C6.05619533 5.56690448 9.86046042 12.5353231 13.75 19.6875 C14.86941951 21.71244536 15.98919864 23.73719197 17.109375 25.76171875 C17.59374023 26.64819092 18.07810547 27.53466309 18.57714844 28.44799805 C19.56451222 30.21891665 20.59411337 31.96668255 21.65576172 33.6940918 C23.79293922 37.36020904 23.40557057 39.80910412 23 44 C21.38133681 46.95167993 19.89114428 47.03225355 16.625 48 C13 48 13 48 10.61328125 46.04296875 C7.3472454 42.52065185 4.99538118 38.43096535 2.5625 34.3125 C2.08312988 33.51465088 1.60375977 32.71680176 1.10986328 31.89477539 C-0.26699672 29.60055269 -1.63466871 27.30109672 -3 25 C-4.20760316 22.97873025 -5.41575514 20.95778802 -6.625 18.9375 C-7.07101563 18.18339844 -7.51703125 17.42929687 -7.9765625 16.65234375 C-8.89505391 15.02867886 -8.89505391 15.02867886 -10 14 C-15.22035222 13.51550425 -15.22035222 13.51550425 -20 15.125 C-21.45915585 17.86091722 -21.22100996 19.92660943 -21 23 C-19.91330095 25.74137386 -19.91330095 25.74137386 -18.296875 28.37109375 C-17.72839844 29.35787109 -17.15992188 30.34464844 -16.57421875 31.36132812 C-15.97222656 32.37646484 -15.37023437 33.39160156 -14.75 34.4375 C-13.87021484 35.9544043 -13.87021484 35.9544043 -12.97265625 37.50195312 C-10.90156484 41.06934991 -8.81748874 44.62862912 -6.70532227 48.171875 C-4.43227903 52.033965 -3.11323505 54.4676458 -4 59 C-6.45594125 62.32274404 -7.9256644 63.77618008 -12 64.625 C-16.01669403 63.78818874 -17.28298033 62.03648481 -20 59 C-21.29169769 57.0207268 -22.51150242 54.99308533 -23.6640625 52.9296875 C-24.31117187 51.78628906 -24.95828125 50.64289063 -25.625 49.46484375 C-26.29231197 48.26858891 -26.95897257 47.0719705 -27.625 45.875 C-28.94451484 43.51473212 -30.2714263 41.15902858 -31.6015625 38.8046875 C-32.18244629 37.76296387 -32.76333008 36.72124023 -33.36181641 35.64794922 C-35.83612735 31.54318911 -35.83612735 31.54318911 -39.9375 29.53125 C-44.48361237 29.45560627 -44.48361237 29.45560627 -48.1875 31.9375 C-49.42087963 36.58639245 -48.04791014 39.75093474 -46 44 C-44.61668034 46.27317441 -43.13947014 48.44307194 -41.60546875 50.6171875 C-39.88615451 53.16896776 -38.44197142 55.78258405 -37 58.5 C-30.07283432 71.45632646 -30.07283432 71.45632646 -18.06640625 79.39453125 C-8.37240913 82.23492738 0.92522881 81.00490019 9.921875 76.5546875 C19.35743555 70.95069436 25.92693781 64.24905125 29.33984375 53.71484375 C29.96771573 51.13276668 30.29584501 48.70782744 30.5 46.0625 C30.74778144 43.12075438 30.97435977 42.04204997 32.5625 39.4375 C36.07836672 37.36404014 39.02215734 37.24192753 43 38 C45.5 39.3125 45.5 39.3125 47 42 C48.92668425 53.60024474 44.37305895 65.08273064 37.8984375 74.5078125 C28.45974214 86.89852781 15.01003952 94.99600731 -0.37109375 97.5625 C-13.40011023 98.95690979 -25.47923317 96.52311088 -35.94628906 88.51000977 C-41.01124111 84.26102124 -44.48664808 79.83768379 -47.875 74.1875 C-48.37749268 73.37087891 -48.87998535 72.55425781 -49.39770508 71.71289062 C-66.19353742 44.16296831 -66.19353742 44.16296831 -65 29 C-63.04503575 21.7833891 -58.40199426 18.26799618 -52.375 14.25 C-48.91668641 12.96914312 -46.58734098 12.88844528 -42.9375 12.8125 C-38.66851966 12.66864692 -38.66851966 12.66864692 -35.32421875 10.33984375 C-34.52176656 8.94143358 -33.76612371 7.51515808 -33.05859375 6.06640625 C-30.39625962 0.86945143 -25.32816635 -1.74037558 -19.9921875 -3.4921875 C-13.09327688 -5.25073334 -6.06976639 -3.53513867 0 0 Z " fill="#F05A27" transform="translate(84,45)"/>
<path d="M0 0 C4.56605518 3.78666412 7.03236702 8.22398465 9.75 13.375 C10.62024122 14.98423995 11.49267753 16.59229458 12.3671875 18.19921875 C12.80385742 19.00278809 13.24052734 19.80635742 13.69042969 20.63427734 C16.00227164 24.81059138 18.47531498 28.8869337 20.95605469 32.96435547 C28.95539064 46.11689229 28.95539064 46.11689229 28 51 C25.43445184 54.57621865 23.85876865 55.79701832 19.5625 56.8125 C14.31807338 55.6164027 12.85249165 52.37427243 10 48 C7.58826944 43.94892318 5.31732835 39.82755337 3.0625 35.6875 C-0.92529686 28.39641183 -4.99289321 21.28234489 -9.64990234 14.39355469 C-11.80604942 10.57097494 -11.82811056 8.29111837 -11 4 C-8.16650967 -0.53358453 -5.10426635 -0.80593679 0 0 Z " fill="#F05A27" transform="translate(98,25)"/>
<path d="M0 0 C3.52348621 1.94916259 4.70157016 3.12336234 6 6.9375 C6 11.4789913 4.26746475 13.64200205 1.25 16.875 C-2.15893382 18.57946691 -4.38429194 17.96849323 -8 17 C-11.24875254 14.77716931 -11.89631231 13.38018818 -12.9375 9.5625 C-13.00698608 5.60179332 -12.43366566 4.06461602 -10 1 C-6.78844722 -0.60577639 -3.483641 -0.47382856 0 0 Z " fill="#F15927" transform="translate(88,6)"/>
</svg>
